<?xml version="1.0" encoding="UTF-8" standalone="no"?>
<!-- Created with Inkscape (http://www.inkscape.org/) -->

<svg
   version="1.1"
   id="svg2"
   width="4000"
   height="2666.6667"
   viewBox="0 0 4000 2666.6667"
   sodipodi:docname="vecteezy_entrepreneurs-announce-hiring-employees-to-work-in-the-company_.eps"
   xmlns:inkscape="http://www.inkscape.org/namespaces/inkscape"
   xmlns:sodipodi="http://sodipodi.sourceforge.net/DTD/sodipodi-0.dtd"
   xmlns="http://www.w3.org/2000/svg"
   xmlns:svg="http://www.w3.org/2000/svg">
  <defs
     id="defs6">
    <clipPath
       clipPathUnits="userSpaceOnUse"
       id="clipPath26">
      <path
         d="m 10700.9,16406.8 c 1561.3,30 3150,-375.9 4466.5,-1131.7 1334.4,-766 2160.7,-2228.1 3667.4,-2698.5 725.9,-226.6 1566.6,-217.1 2410.8,-207.5 1598.9,18 3210.2,36.1 4077.9,-1550.5 877.3,-1604.1 670.5,-3913 -473,-5334.3 -639.3,-794.5 -1580.3,-1301.5 -2558.4,-1589.7 -1861,-548.2 -4372.9,-850.3 -6137.6,135.9 -632.2,353.3 -1147.6,874.7 -1571.5,1456.3 -388.2,532.7 -608.2,1239.2 -1121.7,1663.1 -825.5,681.6 -2021.1,562.6 -3089.5,496 -1159.48,-72.4 -2401.16,-16.4 -3358.35,642 -2585.74,1778.6 -2274.44,5933.9 471.96,7344.9 983.19,505.1 2092.23,752.4 3215.49,774"
         id="path24" />
    </clipPath>
    <clipPath
       clipPathUnits="userSpaceOnUse"
       id="clipPath50">
      <path
         d="m 7666.29,9886.9 c 0,0 -377.43,-593.3 -449.66,-718.6 C 7169.5,9086.5 6106.88,7791.6 6106.88,7791.6 l 235.57,-182.4 1259.08,1058 c 61.14,51.3 117.36,108.2 168.04,169.9 178.95,217.9 611.06,745.6 624.41,778.2 16.85,41 -529.22,504.5 -727.69,271.6"
         id="path48" />
    </clipPath>
    <clipPath
       clipPathUnits="userSpaceOnUse"
       id="clipPath62">
      <path
         d="m 12755.2,13648.1 c -34.1,-14.6 -131.5,-139.9 -131.5,-139.9 0,0 86.5,381.4 56.6,375.9 -30,-5.4 -113.5,-256 -113.5,-256 0,0 97.8,425.8 35.8,371.8 -62,-54 -116.5,-327.6 -125.8,-343 -9.2,-15.4 44.8,316.3 25.7,321.1 -36.4,9 -149.8,-439.6 -149.8,-439.6 0,0 -277.6,108.3 -237.9,70 205.3,-197.8 201.7,-424.5 201.7,-424.5 -248.9,-777.9 -377.4,-1476 -377.4,-1476 l -680.9,-225.5 c -170.4,-263.5 342.7,-808.3 342.7,-808.3 0,0 782.8,421.8 918.5,545.4 203.5,185.2 44.1,1971.4 44.1,1971.4 75.7,148.7 225.7,471.9 191.7,457.2"
         id="path60" />
    </clipPath>
    <clipPath
       clipPathUnits="userSpaceOnUse"
       id="clipPath74">
      <path
         d="m 9914.42,12339.1 c -154.62,64 -189.49,456.9 -189.49,456.9 -66.36,296.8 -655.38,160.1 -756.15,-45 -100.77,-205 218.55,-751.6 272.32,-835 1.76,-2.7 3.99,-5.5 6.61,-8.3 -34.09,-99.7 -199.26,-599.8 -100.65,-648.8 109.58,-54.6 667.35,-6.3 659.08,69.9 -4.96,45.8 -62.36,265.8 -107.37,434 81.35,-11.6 153.1,-15 194.23,-5.8 134.8,30.2 22.01,310.1 38.95,362 16.95,51.8 123.55,13.4 206.95,67.2 83.4,53.7 -69.9,88.8 -224.48,152.9"
         id="path72" />
    </clipPath>
    <clipPath
       clipPathUnits="userSpaceOnUse"
       id="clipPath86">
      <path
         d="m 9396.07,12738 c 5.1,3.4 32.39,-43.8 89.24,-90.9 70.94,-58.9 187.89,-117.7 365.18,-78.4 319.41,70.7 102.89,501.6 102.89,501.6 0,0 17.15,-120.1 -15.01,-120.1 -32.15,0 -55.72,188.6 -392.25,222.9 -336.54,34.3 -357.97,-205.5 -357.97,-205.5 0,0 -535.42,-83.5 -374.12,-558.2 161.3,-474.8 427.07,-493.4 427.07,-493.4 0,0 233.06,340.9 170.54,345.7 -20.79,1.6 -307.41,17.1 -219.61,151.4 87.78,134.3 227.53,-28.4 227.53,-28.4 0,0 -142.21,275.4 -23.49,353.3"
         id="path84" />
    </clipPath>
    <clipPath
       clipPathUnits="userSpaceOnUse"
       id="clipPath132">
      <path
         d="m 10412.7,8164.5 c 0,0 370.6,-5426.1 258,-5493.9 -112.7,-67.8 -699.97,-222.2 -829.52,-75.1 -129.55,147.2 -602.1,4227.7 -602.1,4227.7 0,0 -737.23,-4244.3 -972.26,-4256.5 -235.02,-12.2 -715.37,-113.3 -775.94,157.2 -60.58,270.6 659.79,5411.2 659.79,5411.2 l 2262.03,29.4"
         id="path130" />
    </clipPath>
    <clipPath
       clipPathUnits="userSpaceOnUse"
       id="clipPath146">
      <path
         d="m 10412.7,8164.5 20.8,2052.4 c 0,0 845.5,101.4 1374.6,411.8 349.7,205.1 -359.9,952.2 -359.9,952.2 0,0 -1190.6,-186.3 -1258,-167.6 -26.3,7.3 -124,21.2 -233.09,35.4 -313.27,40.8 -631.86,17.3 -935.03,-71.6 -247.72,-72.7 -519.93,-186 -690.16,-357.8 -377.76,-381.5 -926.08,-1136 -857.53,-1194.6 68.56,-58.5 729.76,-334.4 853.76,-284.7 124.01,49.7 -292.45,-1366 -177.48,-1404.9 114.97,-39 961.78,-388.8 2262.03,29.4"
         id="path144" />
    </clipPath>
    <clipPath
       clipPathUnits="userSpaceOnUse"
       id="clipPath186">
      <path
         d="m 16025.3,10417.8 c 0,-101.5 82.2,-183.7 183.6,-183.7 h 8345.6 c 101.4,0 183.6,82.2 183.6,183.7 V 15657 h -8712.8 v -5239.2"
         id="path184" />
    </clipPath>
    <clipPath
       clipPathUnits="userSpaceOnUse"
       id="clipPath216">
      <path
         d="m 11766.7,8037.7 c 0,0 1829.9,-826.8 1989.4,-779 159.5,47.7 1741.7,1338.4 1741.7,1338.4 l 361.4,-2410.3 c 7.2,-48.2 -26,-93.1 -74.1,-100.4 l -3556.6,-533.2 c -48.2,-7.3 -93.1,26 -100.4,74.1 l -361.4,2410.4"
         id="path214" />
    </clipPath>
    <clipPath
       clipPathUnits="userSpaceOnUse"
       id="clipPath228">
      <path
         d="m 17096.1,13824.2 c 0,0 -1185.4,-1424.1 -1246.6,-1439.4 -61.2,-15.3 -1892.5,237.3 -1892.5,237.3 0,0 -86.7,-306.8 -51.7,-324.3 35.1,-17.5 1885.1,-698.4 2142.2,-686.8 257.1,11.7 974.1,750.6 974.1,750.6 l 74.5,1462.6"
         id="path226" />
    </clipPath>
    <clipPath
       clipPathUnits="userSpaceOnUse"
       id="clipPath246">
      <path
         d="m 17980,14176.4 c 0,0 1063,-483.2 1118.7,-989.9 55.6,-506.6 416.7,-2960.4 223.8,-2958.6 -894.2,8.5 -1177,0 -1933.5,0 -379.5,0 -790.6,2731.6 -637.2,3140.5 153.3,408.9 602.3,628.5 602.3,628.5 l 625.9,179.5"
         id="path244" />
    </clipPath>
    <clipPath
       clipPathUnits="userSpaceOnUse"
       id="clipPath264">
      <path
         d="m 17259.6,15957.2 c -65.6,10.9 -135,2.5 -194.4,-27.6 -59.4,-30.1 -107.9,-82.5 -129.6,-145.4 -35.1,-102 0.8,-220 -42.7,-318.6 -26.7,-60.6 -79.9,-105.5 -111.9,-163.4 -24,-43.6 -35.2,-94.2 -31.8,-143.9 8.1,-121 97.3,-220 188.8,-299.5 29.7,61.5 79.6,110.5 127.7,159 149.7,150.6 296.5,316 356.5,519.7 20,67.9 29.1,141.1 16,211.2 -6.4,34.1 -18.1,68.6 -37.1,97.8 -7.6,11.6 -10.4,24.6 -17.3,36.7 -7.2,12.7 -17.1,23.7 -28.4,33 -27,22.2 -61.5,35.2 -95.8,41"
         id="path262" />
    </clipPath>
    <clipPath
       clipPathUnits="userSpaceOnUse"
       id="clipPath276">
      <path
         d="m 17837.3,15480 c -76.8,90.5 -357.4,189.6 -583.8,147.3 -127.7,-23.8 -227.4,-124.1 -254.9,-251 -62.5,-287.2 -186.5,-964.9 17.8,-1027 91,-27.6 198,-6 300.8,38.8 20.8,-174.8 103.6,-572.8 118.6,-626 21,-74.8 519.5,178.1 602,270.9 82.4,92.8 -321.6,678.5 -321.6,678.5 48.8,118.3 227.9,642.6 121.1,768.5"
         id="path274" />
    </clipPath>
    <clipPath
       clipPathUnits="userSpaceOnUse"
       id="clipPath302">
      <path
         d="m 18548.9,9207.1 c 0,0 926.6,1977.4 926.6,2186.1 0,152 -125.1,1303 -379.5,1891.5 -118.9,275.2 -499.9,294.9 -644.9,32.6 -86.5,-156.5 -140.3,-378.5 -70.9,-679.6 167,-723.5 391.8,-1217.8 391.8,-1217.8 l -626.5,-2157.1 c 0,0 -107.2,-372.6 -107.2,-429.4 0,-56.7 31.5,-615.8 68.8,-615.8 37.3,0 79.9,522.6 79.9,522.6 0,0 16.2,-603.6 79.7,-603.6 35.5,0.1 53.2,568.8 53.2,568.8 0,0 109.5,-375.5 172.1,-434.1 62.6,-58.7 -41.2,463 -41.2,463 0,0 235.7,-210.5 275.9,-181.5 22.4,16.3 -202.7,277.7 -202.7,332.5 0,54.7 117.1,190.1 24.9,321.8"
         id="path300" />
    </clipPath>
    <clipPath
       clipPathUnits="userSpaceOnUse"
       id="clipPath316">
      <path
         d="m 22387.5,13743.5 h -1234.2 c -35.5,0 -64.3,28.7 -64.3,64.2 v 1034.4 c 0,35.5 28.8,64.3 64.3,64.3 h 1234.2 c 35.5,0 64.2,-28.8 64.2,-64.3 v -1034.4 c 0,-35.5 -28.7,-64.2 -64.2,-64.2"
         id="path314" />
    </clipPath>
  </defs>
  <sodipodi:namedview
     id="namedview4"
     pagecolor="#ffffff"
     bordercolor="#000000"
     borderopacity="0.25"
     inkscape:showpageshadow="2"
     inkscape:pageopacity="0.0"
     inkscape:pagecheckerboard="0"
     inkscape:deskcolor="#d1d1d1" />
  <g
     id="g8"
     inkscape:groupmode="layer"
     inkscape:label="ink_ext_XXXXXX"
     transform="matrix(1.3333333,0,0,-1.3333333,0,2666.6667)">
    <g
       id="g10"
       transform="scale(0.1)">
      <path
         d="M 0,0 H 30000 V 20000 H 0 Z"
         style="fill:#ffffff;fill-opacity:0;fill-rule:nonzero;stroke:none"
         id="path12" />
      <path
         d="m 24746.9,2011.7 c 0,-134.9 -1853.5,-244.3 -4139.9,-244.3 -2286.4,0 -4139.9,109.4 -4139.9,244.3 0,134.8 1853.5,244.2 4139.9,244.2 2286.4,0 4139.9,-109.4 4139.9,-244.2"
         style="fill:#eaf2fc;fill-opacity:1;fill-rule:nonzero;stroke:none"
         id="path14" />
      <path
         d="m 13928.8,1996.6 c 0,-134.9 -1853.5,-244.3 -4139.87,-244.3 -2286.39,0 -4139.87,109.4 -4139.87,244.3 0,134.9 1853.48,244.2 4139.87,244.2 2286.37,0 4139.87,-109.3 4139.87,-244.2"
         style="fill:#eaf2fc;fill-opacity:1;fill-rule:nonzero;stroke:none"
         id="path16" />
      <path
         d="m 10700.9,16406.8 c 1561.3,30 3150,-375.9 4466.5,-1131.7 1334.4,-766 2160.7,-2228.1 3667.4,-2698.5 725.9,-226.6 1566.6,-217.1 2410.8,-207.5 1598.9,18 3210.2,36.1 4077.9,-1550.5 877.3,-1604.1 670.5,-3913 -473,-5334.3 -639.3,-794.5 -1580.3,-1301.5 -2558.4,-1589.7 -1861,-548.2 -4372.9,-850.3 -6137.6,135.9 -632.2,353.3 -1147.6,874.7 -1571.5,1456.3 -388.2,532.7 -608.2,1239.2 -1121.7,1663.1 -825.5,681.6 -2021.1,562.6 -3089.5,496 -1159.48,-72.4 -2401.16,-16.4 -3358.35,642 -2585.74,1778.6 -2274.44,5933.9 471.96,7344.9 983.19,505.1 2092.23,752.4 3215.49,774"
         style="fill:#eaf2fc;fill-opacity:1;fill-rule:nonzero;stroke:none"
         id="path18" />
      <g
         id="g20">
        <g
           id="g22"
           clip-path="url(#clipPath26)">
          <path
             d="m 19014.8,3385.5 c -1022.1,-0.1 -2024.8,178.1 -2860.3,645 -632.2,353.3 -1147.6,874.7 -1571.5,1456.3 -87.8,120.5 -167,249.9 -243,383 l 1445.1,216.6 c 43.6,6.6 75,44.1 75.1,86.9 0,4.4 -0.3,8.9 -1,13.5 l -212.4,1416.6 c 456.1,-102.9 929.1,-147.8 1399.9,-147.8 160.5,0 320.7,5.2 479.9,15.1 1192.1,74.3 2353.4,390.6 3518.4,653.8 1249.3,282.3 2540.4,503.5 3816.2,503.5 336.3,0 671.8,-15.4 1005,-49.1 0,-4.5 0,-9.1 0,-13.6 0.4,-1118.3 -347.9,-2251 -1015.7,-3081 -639.3,-794.5 -1580.3,-1301.5 -2558.4,-1589.7 -979.9,-288.7 -2140.6,-509.1 -3277.3,-509.1 m -5276,3871.2 c -243.5,0 -1972.1,781 -1972.1,781 l 52,-346.4 c -101.9,5.1 -204.6,7.2 -307.7,7.2 -381.2,0 -767.9,-29.5 -1139.2,-52.6 -237.2,-14.8 -477.81,-24.3 -718.69,-24.3 -936.85,0 -1878.24,142.6 -2639.66,666.3 -393.92,271 -720.53,597 -981.61,960.2 873.76,161.2 1731.84,445.3 2601.18,644.9 562.95,129.3 1153.7,219.4 1733.98,219.4 690.4,0 1366.1,-127.6 1962.6,-468.8 651.1,-372.5 1146.9,-966.6 1767.7,-1387.6 182.6,-123.9 374.1,-231.3 572.5,-323.7 -410.3,-324.2 -835,-650.1 -913.7,-673.6 -4.5,-1.4 -10.3,-2 -17.3,-2"
             style="fill:#f1f6fe;fill-opacity:1;fill-rule:nonzero;stroke:none"
             id="path28" />
          <path
             d="m 25601.5,5430.7 h -595 c -82.8,451.4 -259.4,877.7 -520.1,1255.4 l 420.8,420.8 c 52.9,52.9 52.9,138.8 0,191.8 l -652.1,652 c -52.9,53 -138.8,53 -191.7,0 L 23642.6,7530 c -377.8,260.7 -804,437.2 -1255.5,520 v 595 c 0,74.9 -60.7,135.6 -135.6,135.6 h -922.1 c -74.9,0 -135.6,-60.7 -135.6,-135.6 v -595 c -451.5,-82.8 -877.7,-259.3 -1255.5,-520 l -420.7,420.7 c -53,53 -138.9,53 -191.8,0 l -652.1,-652 c -52.9,-53 -52.9,-138.9 0,-191.8 l 420.8,-420.8 c -260.7,-377.7 -437.3,-804 -520.1,-1255.4 h -595 c -74.9,0 -135.6,-60.8 -135.6,-135.7 v -922.1 c 0,-74.9 60.7,-135.6 135.6,-135.6 h 595 c 82.8,-451.5 259.4,-877.7 520.1,-1255.5 l -420.8,-420.7 c -52.9,-53 -52.9,-138.9 0,-191.8 l 652.1,-652.1 c 52.9,-52.9 138.8,-52.9 191.8,0 l 420.7,420.8 c 377.8,-260.7 804,-437.3 1255.5,-520.1 v -595 c 0,-74.9 60.7,-135.599 135.6,-135.599 h 922.1 c 74.9,0 135.6,60.699 135.6,135.599 v 595 c 451.5,82.8 877.7,259.4 1255.5,520.1 l 420.8,-420.8 c 52.9,-52.9 138.8,-52.9 191.7,0 l 652.1,652.1 c 52.9,52.9 52.9,138.8 0,191.8 l -420.8,420.7 c 260.7,377.8 437.3,804 520.1,1255.5 h 595 c 74.9,0 135.6,60.7 135.6,135.6 V 5295 c 0,74.9 -60.7,135.7 -135.6,135.7 z m -3811,-2780.8 c -1204.3,0 -2184.1,979.8 -2184.1,2184.1 0,1204.3 979.8,2184 2184.1,2184 1204.3,0 2184,-979.7 2184,-2184 0,-1204.3 -979.7,-2184.1 -2184,-2184.1"
             style="fill:#d4dfff;fill-opacity:1;fill-rule:nonzero;stroke:none"
             id="path30" />
        </g>
      </g>
      <path
         d="m 14415.9,13130.8 -3556.3,716.8 c -62.2,12.5 -102.4,73.1 -89.9,135.2 l 199.4,989.6 c 12.5,62.1 73.1,102.4 135.3,89.8 l 3556.3,-716.7 c 62.1,-12.5 102.4,-73.1 89.8,-135.2 l -199.4,-989.6 c -12.5,-62.1 -73.1,-102.4 -135.2,-89.9"
         style="fill:#d4dfff;fill-opacity:1;fill-rule:nonzero;stroke:none"
         id="path32" />
      <path
         d="m 14560.5,13973.2 -2521.3,508.1 c -5.2,1.1 -8.6,6.1 -7.5,11.4 l 29.6,147 c 1.1,5.2 6.1,8.6 11.3,7.5 l 2521.3,-508.1 c 5.2,-1.1 8.6,-6.1 7.5,-11.3 l -29.6,-147.1 c -1.1,-5.2 -6.1,-8.5 -11.3,-7.5"
         style="fill:#ffffff;fill-opacity:1;fill-rule:nonzero;stroke:none"
         id="path34" />
      <path
         d="m 14497.4,13660.1 -2521.3,508.1 c -5.2,1.1 -8.6,6.2 -7.5,11.4 l 29.6,147 c 1.1,5.2 6.1,8.6 11.3,7.5 l 2521.3,-508.1 c 5.2,-1.1 8.6,-6.1 7.5,-11.3 l -29.6,-147.1 c -1.1,-5.2 -6.1,-8.5 -11.3,-7.5"
         style="fill:#ffffff;fill-opacity:1;fill-rule:nonzero;stroke:none"
         id="path36" />
      <path
         d="m 13606.3,13513.9 -1695,341.6 c -4.3,0.8 -7,5 -6.2,9.3 l 30.3,150.4 c 0.9,4.3 5.1,7 9.3,6.2 l 1695,-341.6 c 4.3,-0.9 7,-5.1 6.2,-9.3 l -30.3,-150.4 c -0.9,-4.3 -5.1,-7.1 -9.3,-6.2"
         style="fill:#ffffff;fill-opacity:1;fill-rule:nonzero;stroke:none"
         id="path38" />
      <path
         d="m 11678.6,13881.4 -699.1,140.9 c -36.8,7.4 -60.6,43.3 -53.2,80.1 l 140.9,699 c 7.4,36.9 43.3,60.7 80.1,53.3 l 699,-140.9 c 36.9,-7.4 60.7,-43.3 53.3,-80.1 l -140.9,-699 c -7.4,-36.9 -43.3,-60.7 -80.1,-53.3"
         style="fill:#ffffff;fill-opacity:1;fill-rule:nonzero;stroke:none"
         id="path40" />
      <path
         d="m 7666.29,9886.9 c 0,0 -377.43,-593.3 -449.66,-718.6 -47.12,-81.8 -1109.75,-1376.7 -1109.75,-1376.7 l 235.57,-182.4 1259.09,1058 c 61.13,51.3 117.35,108.2 168.03,169.9 178.95,217.9 611.06,745.6 624.41,778.2 16.85,41 -529.22,504.5 -727.69,271.6"
         style="fill:#fe8e9c;fill-opacity:1;fill-rule:nonzero;stroke:none"
         id="path42" />
      <g
         id="g44">
        <g
           id="g46"
           clip-path="url(#clipPath50)">
          <path
             d="m 7487.26,9952 c 0,0 83.04,-691.3 680.05,-732.8 l 384.16,519.1 -721.6,404.9 -342.61,-191.2"
             style="fill:#e57492;fill-opacity:1;fill-rule:nonzero;stroke:none"
             id="path52" />
        </g>
      </g>
      <path
         d="m 12755.2,13648.1 c -34.1,-14.6 -131.5,-139.9 -131.5,-139.9 0,0 86.5,381.4 56.6,375.9 -30,-5.4 -113.5,-256 -113.5,-256 0,0 97.8,425.8 35.8,371.8 -62,-54 -116.5,-327.6 -125.8,-343 -9.2,-15.4 44.8,316.3 25.7,321.1 -36.4,9 -149.8,-439.6 -149.8,-439.6 0,0 -277.6,108.3 -237.9,70 205.3,-197.8 201.7,-424.5 201.7,-424.5 -248.9,-777.9 -377.4,-1476 -377.4,-1476 l -680.9,-225.5 c -170.4,-263.5 342.7,-808.3 342.7,-808.3 0,0 782.8,421.8 918.5,545.4 203.5,185.2 44.1,1971.4 44.1,1971.4 75.7,148.7 225.7,471.9 191.7,457.2"
         style="fill:#fe8e9c;fill-opacity:1;fill-rule:nonzero;stroke:none"
         id="path54" />
      <g
         id="g56">
        <g
           id="g58"
           clip-path="url(#clipPath62)">
          <path
             d="m 11173.5,10834.2 c 16.9,12.7 1199.5,447.8 1414.9,456.2 215.4,8.5 -756,-612.4 -912.3,-658.9 -156.3,-46.5 -502.6,202.7 -502.6,202.7"
             style="fill:#e57492;fill-opacity:1;fill-rule:nonzero;stroke:none"
             id="path64" />
        </g>
      </g>
      <path
         d="m 9914.42,12339.1 c -154.62,64 -189.49,456.9 -189.49,456.9 -66.37,296.8 -655.38,160.1 -756.15,-45 -100.77,-205 218.55,-751.6 272.32,-835 1.76,-2.7 3.99,-5.5 6.61,-8.3 -34.09,-99.7 -199.26,-599.8 -100.65,-648.8 109.59,-54.6 667.35,-6.3 659.08,69.9 -4.97,45.8 -62.37,265.8 -107.37,434 81.35,-11.6 153.1,-15 194.23,-5.8 134.8,30.2 22.01,310.1 38.96,362 16.94,51.8 123.54,13.4 206.94,67.2 83.4,53.7 -69.9,88.8 -224.48,152.9"
         style="fill:#fe8e9c;fill-opacity:1;fill-rule:nonzero;stroke:none"
         id="path66" />
      <g
         id="g68">
        <g
           id="g70"
           clip-path="url(#clipPath74)">
          <path
             d="m 9698.77,11762.8 c 0,0 -28.88,1.8 -102.8,75.4 0,0 14.72,-168.8 150.77,-257.3 l -47.97,181.9"
             style="fill:#e57492;fill-opacity:1;fill-rule:nonzero;stroke:none"
             id="path76" />
        </g>
      </g>
      <path
         d="m 9396.07,12738 c 11.47,7.5 135.04,-240.1 454.42,-169.3 319.41,70.7 102.89,501.6 102.89,501.6 0,0 17.15,-120.1 -15,-120.1 -32.16,0 -55.74,188.6 -392.27,222.9 -336.53,34.3 -357.96,-205.5 -357.96,-205.5 0,0 -535.41,-83.5 -374.12,-558.2 161.3,-474.8 427.07,-493.4 427.07,-493.4 0,0 233.06,340.9 170.54,345.7 -20.79,1.6 -307.41,17.1 -219.62,151.4 87.8,134.3 227.54,-28.4 227.54,-28.4 0,0 -142.21,275.4 -23.49,353.3"
         style="fill:#1b3d9e;fill-opacity:1;fill-rule:nonzero;stroke:none"
         id="path78" />
      <g
         id="g80">
        <g
           id="g82"
           clip-path="url(#clipPath86)">
          <path
             d="m 9171.92,12994.4 c 0,0 155.64,-87.3 16.19,-280.6 -139.44,-193.4 -515.01,-329.1 -515.01,-329.1 0,0 -132.01,345.8 59.5,449.9 191.5,104.1 439.32,159.8 439.32,159.8"
             style="fill:#1c056d;fill-opacity:1;fill-rule:nonzero;stroke:none"
             id="path88" />
        </g>
      </g>
      <path
         d="m 9938.92,12037.9 c 0,0 -183.08,-0.3 -252.1,63.7 0,0 45.86,-190.5 156.69,-172 110.82,18.4 104.19,60.1 104.19,60.1 l -8.78,48.2"
         style="fill:#ffffff;fill-opacity:1;fill-rule:nonzero;stroke:none"
         id="path90" />
      <path
         d="m 7487.26,1972.9 c 0,0 -16.64,-86.4 16.87,-94.8 33.5,-8.4 1605.44,2.8 1627.78,14 22.34,11.1 13.96,88.6 0,101.5 -13.96,13 -1644.65,-20.7 -1644.65,-20.7"
         style="fill:#1c056d;fill-opacity:1;fill-rule:nonzero;stroke:none"
         id="path92" />
      <path
         d="m 8235.71,2639.3 c 0,0 15.41,-190 61.62,-205.4 46.21,-15.4 836.97,-210.5 852.37,-251.6 15.41,-41.1 15.41,-200.2 -41.07,-200.2 -56.49,0 -1590.56,-29.7 -1621.37,-9.2 -30.81,20.6 122.01,666.4 122.01,666.4 h 626.44"
         style="fill:#fc476a;fill-opacity:1;fill-rule:nonzero;stroke:none"
         id="path94" />
      <path
         d="m 8340.63,2326.1 c 17,34.9 35.58,69.1 55.67,102.3 9.01,14.9 -14.31,28.5 -23.29,13.6 -20.1,-33.2 -38.67,-67.4 -55.67,-102.3 -3.19,-6.5 -1.78,-14.6 4.84,-18.5 5.92,-3.4 15.25,-1.7 18.45,4.9"
         style="fill:#1c056d;fill-opacity:1;fill-rule:nonzero;stroke:none"
         id="path96" />
      <path
         d="m 8455.2,2298.4 c 16.97,32.2 36.18,63.2 57.52,92.7 4.28,5.9 1.02,15 -4.83,18.4 -6.81,4 -14.18,1.1 -18.46,-4.8 -21.34,-29.5 -40.56,-60.5 -57.52,-92.7 -3.39,-6.5 -1.64,-14.7 4.84,-18.5 6.09,-3.5 15.05,-1.6 18.45,4.9"
         style="fill:#1c056d;fill-opacity:1;fill-rule:nonzero;stroke:none"
         id="path98" />
      <path
         d="m 8586.46,2262.1 c 18.47,33.1 36.93,66.3 55.4,99.5 3.54,6.4 1.54,14.7 -4.84,18.5 -6.21,3.6 -14.9,1.5 -18.45,-4.9 -18.47,-33.2 -36.94,-66.3 -55.4,-99.5 -3.54,-6.4 -1.54,-14.7 4.84,-18.5 6.2,-3.6 14.9,-1.5 18.45,4.9"
         style="fill:#1c056d;fill-opacity:1;fill-rule:nonzero;stroke:none"
         id="path100" />
      <path
         d="m 8703.13,2241.3 c 17.93,29.6 33.28,60.5 46.44,92.5 2.69,6.5 -2.91,15.1 -9.42,16.6 -7.85,1.8 -13.71,-2.4 -16.59,-9.4 -12.02,-29.3 -27.07,-58.6 -43.72,-86.1 -3.78,-6.2 -1.38,-14.8 4.84,-18.4 6.39,-3.8 14.67,-1.5 18.45,4.8"
         style="fill:#1c056d;fill-opacity:1;fill-rule:nonzero;stroke:none"
         id="path102" />
      <path
         d="m 8832.66,2201 c 14.91,30 26.85,61.5 35.35,94 1.85,7 -2.33,14.6 -9.42,16.5 -6.98,2 -14.74,-2.3 -16.59,-9.4 -7.98,-30.4 -18.75,-59.5 -32.63,-87.5 -3.24,-6.5 -1.75,-14.6 4.84,-18.5 5.96,-3.4 15.2,-1.7 18.45,4.9"
         style="fill:#1c056d;fill-opacity:1;fill-rule:nonzero;stroke:none"
         id="path104" />
      <path
         d="m 7940.6,2207.8 c 0,-68.6 -55.61,-124.2 -124.22,-124.2 -68.61,0 -124.23,55.6 -124.23,124.2 0,68.6 55.62,124.2 124.23,124.2 68.61,0 124.22,-55.6 124.22,-124.2"
         style="fill:#1c056d;fill-opacity:1;fill-rule:nonzero;stroke:none"
         id="path106" />
      <path
         d="m 9950.84,2016.8 c 0,0 -15.5,-86.5 15.71,-94.8 31.22,-8.4 1495.65,2.8 1516.45,13.9 20.9,11.2 13,88.6 0,101.6 -13,12.9 -1532.16,-20.7 -1532.16,-20.7"
         style="fill:#1c056d;fill-opacity:1;fill-rule:nonzero;stroke:none"
         id="path108" />
      <path
         d="m 10596.8,2678 c 0,0 15.4,-190 61.7,-205.4 46.2,-15.4 836.9,-210.5 852.3,-251.6 15.4,-41 15.4,-200.2 -41.1,-200.2 -56.4,0 -1499.31,-20.6 -1530.12,0 -30.8,20.5 30.81,657.2 30.81,657.2 h 626.41"
         style="fill:#fc476a;fill-opacity:1;fill-rule:nonzero;stroke:none"
         id="path110" />
      <path
         d="m 10688.3,2380.9 c 6.2,14.1 13.4,27.8 21.7,40.8 4,6.4 8.3,12.7 12.9,18.8 l 1.6,2.2 c 0.3,0.4 1.3,1.7 0.4,0.5 1.2,1.5 2.3,2.9 3.5,4.4 2.6,3.2 5.3,6.3 8,9.5 4.7,5.2 5.6,13.9 0,19 -5.1,4.7 -14.1,5.7 -19.1,0 -21.4,-24.4 -39.2,-51.8 -52.3,-81.6 -2.8,-6.4 -2.1,-14.8 4.8,-18.4 5.9,-3.1 15.5,-2.1 18.5,4.8"
         style="fill:#1c056d;fill-opacity:1;fill-rule:nonzero;stroke:none"
         id="path112" />
      <path
         d="m 10824.6,2338.2 c 13,33.5 29.4,65.6 48.5,96 3.9,6.2 1.3,14.9 -4.8,18.5 -6.5,3.7 -14.6,1.3 -18.5,-4.9 -20.4,-32.4 -37.4,-66.7 -51.3,-102.4 -2.6,-6.8 2.9,-14.8 9.5,-16.6 7.6,-2.1 13.9,2.6 16.6,9.4"
         style="fill:#1c056d;fill-opacity:1;fill-rule:nonzero;stroke:none"
         id="path114" />
      <path
         d="m 10947.1,2308.5 c 14.4,32.3 30.5,63.9 48.3,94.5 8.7,15 -14.6,28.6 -23.3,13.6 -17.8,-30.6 -33.9,-62.2 -48.3,-94.5 -2.9,-6.6 -1.9,-14.5 4.9,-18.4 5.7,-3.4 15.4,-1.9 18.4,4.8"
         style="fill:#1c056d;fill-opacity:1;fill-rule:nonzero;stroke:none"
         id="path116" />
      <path
         d="m 11071.9,2287 c 10.2,25.7 21.8,51.2 34.9,76.7 3.2,6.3 1.8,14.9 -4.9,18.5 -6.1,3.2 -15,1.8 -18.4,-4.9 -13.9,-27.1 -26.4,-54.9 -37.6,-83.2 -2.6,-6.6 2.9,-15.1 9.4,-16.6 7.8,-1.7 13.8,2.4 16.6,9.5"
         style="fill:#1c056d;fill-opacity:1;fill-rule:nonzero;stroke:none"
         id="path118" />
      <path
         d="m 11185.2,2257.2 c 10.5,29 21.1,58 31.6,87 2.4,6.6 -2.7,15.1 -9.4,16.6 -7.6,1.7 -14,-2.3 -16.6,-9.4 -10.5,-29 -21.1,-58.1 -31.6,-87.1 -2.4,-6.6 2.7,-15 9.4,-16.6 7.6,-1.7 14,2.4 16.6,9.5"
         style="fill:#1c056d;fill-opacity:1;fill-rule:nonzero;stroke:none"
         id="path120" />
      <path
         d="m 10384.2,2244.8 c 0,-68.6 -55.6,-124.2 -124.2,-124.2 -68.6,0 -124.2,55.6 -124.2,124.2 0,68.6 55.6,124.2 124.2,124.2 68.6,0 124.2,-55.6 124.2,-124.2"
         style="fill:#1c056d;fill-opacity:1;fill-rule:nonzero;stroke:none"
         id="path122" />
      <path
         d="m 10412.7,8164.5 c 0,0 370.6,-5426.1 258,-5493.9 -112.7,-67.9 -699.98,-222.2 -829.52,-75.1 -129.55,147.2 -602.1,4227.7 -602.1,4227.7 0,0 -737.23,-4244.3 -972.26,-4256.5 -235.02,-12.2 -715.37,-113.3 -775.94,157.2 -60.58,270.6 659.79,5411.2 659.79,5411.2 l 2262.03,29.4"
         style="fill:#1b3d9e;fill-opacity:1;fill-rule:nonzero;stroke:none"
         id="path124" />
      <g
         id="g126">
        <g
           id="g128"
           clip-path="url(#clipPath132)">
          <path
             d="m 7941.97,7859.2 c 0,0 1561.7,-371 2530.83,305.3 l 24.7,182.4 H 7972.84 l -30.87,-487.7"
             style="fill:#1c056d;fill-opacity:1;fill-rule:nonzero;stroke:none"
             id="path134" />
        </g>
      </g>
      <path
         d="m 9239.08,6823.2 c 0,0 -149.45,59.3 -320.17,517.9 0,0 -107.36,-663.7 249.24,-917.2 l 70.93,399.3"
         style="fill:#1c056d;fill-opacity:1;fill-rule:nonzero;stroke:none"
         id="path136" />
      <path
         d="m 10412.7,8164.5 20.7,2052.4 c 0,0 845.6,101.4 1374.7,411.8 349.7,205.1 -359.9,952.2 -359.9,952.2 0,0 -1190.6,-186.3 -1258,-167.6 -26.3,7.3 -124,21.2 -233.09,35.4 -313.27,40.8 -631.86,17.3 -935.02,-71.6 -247.73,-72.7 -519.94,-186 -690.17,-357.8 -377.76,-381.5 -926.08,-1136 -857.52,-1194.6 68.55,-58.5 729.75,-334.4 853.75,-284.7 124.01,49.7 -292.46,-1366 -177.48,-1404.9 114.98,-39 961.79,-388.8 2262.03,29.4"
         style="fill:#fc476a;fill-opacity:1;fill-rule:nonzero;stroke:none"
         id="path138" />
      <g
         id="g140">
        <g
           id="g142"
           clip-path="url(#clipPath146)">
          <path
             d="m 10178.7,11385 c -1.5,0 -3,0.4 -4.4,1.1 -4.3,2.5 -5.8,8 -3.4,12.3 7.2,12.7 11.6,19.5 11.8,19.8 2.7,4.1 8.3,5.3 12.5,2.6 4.1,-2.7 5.3,-8.3 2.5,-12.5 0,0 -4.3,-6.6 -11.1,-18.7 -1.7,-3 -4.7,-4.6 -7.9,-4.6"
             style="fill:#d40221;fill-opacity:1;fill-rule:nonzero;stroke:none"
             id="path148" />
          <path
             d="m 10139.7,11305.1 c -1.1,0 -2.3,0.2 -3.5,0.7 -4.6,1.9 -6.7,7.2 -4.7,11.8 5.9,13.9 12.1,27.7 18.6,40.9 2.1,4.5 7.5,6.3 12,4.2 4.5,-2.2 6.3,-7.6 4.1,-12.1 -6.3,-12.9 -12.4,-26.4 -18.2,-40 -1.4,-3.5 -4.8,-5.5 -8.3,-5.5 z m -30.9,-83.4 c -0.9,0 -1.8,0.1 -2.7,0.4 -4.8,1.5 -7.4,6.6 -5.9,11.3 4.6,14.3 9.5,28.5 14.7,42.4 1.7,4.7 6.9,7.1 11.5,5.4 4.7,-1.8 7.1,-6.9 5.3,-11.6 -5,-13.7 -9.9,-27.7 -14.3,-41.7 -1.3,-3.8 -4.8,-6.2 -8.6,-6.2 z m -23.2,-85.9 -1.9,0.2 c -4.9,1.1 -7.9,5.9 -6.9,10.7 3.3,14.5 6.9,29.2 10.7,43.6 1.3,4.8 6.3,7.6 11.1,6.4 4.8,-1.3 7.6,-6.3 6.3,-11.1 -3.8,-14.1 -7.3,-28.5 -10.5,-42.8 -0.9,-4.2 -4.6,-7 -8.8,-7 z m -15.1,-87.6 h -1.1 c -4.9,0.6 -8.4,5.1 -7.8,10.1 1.8,14.7 4,29.6 6.6,44.4 0.8,4.9 5.5,8.1 10.4,7.3 4.9,-0.8 8.1,-5.5 7.3,-10.4 -2.5,-14.5 -4.7,-29.1 -6.5,-43.6 -0.5,-4.5 -4.4,-7.8 -8.9,-7.8 z m -6.7,-88.7 h -0.2 c -5,0.1 -8.9,4.2 -8.8,9.2 0.4,14.8 1.2,29.9 2.3,44.9 0.4,4.9 4.7,8.7 9.7,8.3 4.9,-0.4 8.6,-4.7 8.2,-9.7 -1.1,-14.6 -1.8,-29.4 -2.2,-44 -0.1,-4.9 -4.1,-8.7 -9,-8.7 z m 2,-88.9 c -4.7,0 -8.6,3.6 -9,8.3 -1,14.8 -1.8,29.9 -2.1,44.9 -0.1,5 3.8,9.1 8.8,9.2 5.1,0.1 9.1,-3.9 9.2,-8.8 0.3,-14.7 1,-29.5 2.1,-44 0.3,-4.9 -3.4,-9.3 -8.3,-9.6 z m 10.9,-88.3 c -4.3,0 -8.1,3.1 -8.9,7.5 -2.5,14.6 -4.8,29.6 -6.6,44.4 -0.6,4.9 2.9,9.4 7.8,10 5,0.6 9.5,-2.9 10.1,-7.8 1.8,-14.5 3.9,-29.2 6.4,-43.5 0.9,-4.9 -2.4,-9.6 -7.3,-10.5 z m 19.6,-86.7 c -4,0 -7.6,2.6 -8.7,6.6 -4,14.3 -7.7,29 -11,43.5 -1.1,4.9 2,9.7 6.8,10.8 4.8,1.1 9.7,-2 10.8,-6.8 3.2,-14.3 6.8,-28.6 10.7,-42.7 1.4,-4.8 -1.4,-9.7 -6.2,-11.1 z m 28,-84.4 c -3.6,0 -7,2.2 -8.4,5.8 -5.4,13.9 -10.5,28.2 -15.2,42.2 -1.5,4.7 1,9.8 5.7,11.4 4.8,1.6 9.8,-1 11.4,-5.7 4.6,-13.8 9.6,-27.7 14.9,-41.5 1.8,-4.6 -0.6,-9.8 -5.2,-11.6 -1,-0.4 -2.1,-0.6 -3.2,-0.6 z m 35.8,-81.4 c -3.3,0 -6.5,1.9 -8.1,5 -6.6,13.4 -13,27.1 -19,40.7 -2,4.5 0.1,9.8 4.6,11.8 4.5,2.1 9.9,0 11.9,-4.6 5.8,-13.3 12.1,-26.8 18.6,-39.9 2.2,-4.4 0.4,-9.8 -4,-12 -1.3,-0.7 -2.7,-1 -4,-1 z m 42.8,-77.9 c -3,0 -6,1.6 -7.7,4.4 -7.7,12.8 -15.3,25.9 -22.4,38.8 -2.4,4.3 -0.8,9.8 3.5,12.2 4.4,2.4 9.9,0.8 12.2,-3.5 7,-12.7 14.5,-25.6 22.1,-38.2 2.6,-4.3 1.2,-9.8 -3,-12.4 -1.5,-0.9 -3.1,-1.3 -4.7,-1.3 z m 49.1,-74.1 c -2.8,0 -5.5,1.3 -7.3,3.7 -8.7,12.2 -17.3,24.6 -25.4,36.9 -2.8,4.1 -1.7,9.7 2.5,12.5 4.1,2.7 9.7,1.6 12.4,-2.6 8.1,-12.1 16.5,-24.3 25.1,-36.3 2.9,-4 2,-9.6 -2,-12.5 -1.6,-1.2 -3.4,-1.7 -5.3,-1.7 z m 54.6,-70.2 c -2.6,0 -5.2,1.1 -6.9,3.2 -9.7,11.5 -19.1,23.3 -28.1,34.9 -3.1,3.9 -2.4,9.5 1.6,12.6 3.9,3 9.5,2.3 12.6,-1.6 8.9,-11.4 18.2,-23 27.7,-34.4 3.2,-3.8 2.6,-9.4 -1.2,-12.6 -1.7,-1.4 -3.7,-2.1 -5.7,-2.1 z m 59.2,-66.4 c -2.4,0 -4.8,1 -6.6,2.8 -10.3,10.9 -20.5,22 -30.3,32.9 -3.3,3.7 -3,9.4 0.7,12.7 3.7,3.3 9.4,3 12.7,-0.7 9.7,-10.8 19.8,-21.7 30,-32.5 3.4,-3.6 3.3,-9.3 -0.3,-12.7 -1.8,-1.7 -4,-2.5 -6.2,-2.5 z m 63.1,-62.6 c -2.2,0 -4.4,0.8 -6.1,2.5 -11.1,10.3 -21.8,20.6 -32.2,31 -3.6,3.5 -3.6,9.2 -0.1,12.7 3.5,3.5 9.2,3.5 12.7,0 10.3,-10.2 20.9,-20.4 31.9,-30.6 3.6,-3.4 3.8,-9.1 0.4,-12.7 -1.8,-1.9 -4.2,-2.9 -6.6,-2.9"
             style="fill:#d40221;fill-opacity:1;fill-rule:nonzero;stroke:none"
             id="path150" />
          <path
             d="m 10479.1,10133.6 c -2.1,0 -4.2,0.7 -5.9,2.2 -5.8,5 -11.4,9.9 -17,14.9 -3.7,3.2 -4.1,8.9 -0.8,12.7 3.3,3.7 9,4 12.7,0.7 5.5,-4.9 11.2,-9.8 16.8,-14.7 3.8,-3.2 4.2,-8.9 1,-12.7 -1.8,-2 -4.3,-3.1 -6.8,-3.1"
             style="fill:#d40221;fill-opacity:1;fill-rule:nonzero;stroke:none"
             id="path152" />
          <path
             d="m 8557.86,11197.5 c -4.77,0 -8.75,3.7 -8.98,8.6 -0.48,10 -0.74,19 -0.74,27.1 0,7.1 0.22,13.5 0.65,18.9 0.39,5 4.67,8.8 9.67,8.3 4.95,-0.4 8.65,-4.7 8.26,-9.7 -0.39,-4.9 -0.59,-10.8 -0.59,-17.5 0,-7.8 0.25,-16.6 0.72,-26.3 0.23,-5 -3.6,-9.2 -8.56,-9.4 z m 6.81,-89.7 c -4.6,0 -8.52,3.5 -8.94,8.2 -1.45,15.9 -2.75,30.9 -3.86,44.9 -0.39,4.9 3.3,9.3 8.25,9.7 5.01,0.3 9.28,-3.3 9.68,-8.3 1.1,-13.9 2.4,-28.8 3.84,-44.7 0.45,-5 -3.2,-9.3 -8.15,-9.8 z m 8.33,-89.6 c -4.59,0 -8.51,3.5 -8.94,8.2 l -4.18,44.7 c -0.46,5 3.17,9.4 8.11,9.8 5.03,0.4 9.33,-3.1 9.8,-8.1 l 4.18,-44.8 c 0.45,-4.9 -3.19,-9.3 -8.13,-9.8 z m 7.88,-89.6 c -4.64,0 -8.57,3.5 -8.95,8.2 -1.25,15.3 -2.53,30.2 -3.82,44.8 -0.43,4.9 3.22,9.3 8.17,9.7 4.97,0.5 9.31,-3.2 9.74,-8.1 1.3,-14.6 2.58,-29.6 3.83,-44.9 0.4,-4.9 -3.28,-9.3 -8.23,-9.7 z m 6.6,-89.7 c -4.7,0 -8.65,3.6 -8.96,8.4 -0.97,15.1 -2.01,30.1 -3.1,44.8 -0.37,4.9 3.35,9.2 8.31,9.6 4.91,0.3 9.26,-3.3 9.63,-8.3 1.09,-14.8 2.13,-29.8 3.11,-45 0.32,-4.9 -3.44,-9.2 -8.4,-9.5 z m 4.79,-89.9 c -4.8,0 -8.78,3.8 -8.98,8.7 -0.62,15 -1.33,30 -2.12,44.8 -0.27,4.9 3.54,9.2 8.5,9.4 5,0.2 9.2,-3.5 9.46,-8.5 0.79,-14.8 1.51,-29.9 2.13,-45 0.2,-5 -3.65,-9.1 -8.61,-9.3 z m 2.45,-89.9 c -4.92,0 -8.93,4 -8.99,8.9 -0.18,15 -0.49,30 -0.9,44.8 -0.13,5 3.78,9.1 8.74,9.3 5.2,0.1 9.1,-3.8 9.24,-8.8 0.41,-14.9 0.71,-30 0.9,-45.1 0.06,-4.9 -3.92,-9 -8.89,-9.1 z m -0.49,-89.9 h -0.22 c -4.96,0.1 -8.89,4.3 -8.77,9.2 0.36,15 0.57,29.9 0.64,44.8 0.02,5 4.05,9 8.99,9 h 0.05 c 4.96,-0.1 8.97,-4.1 8.95,-9.1 -0.08,-15 -0.29,-30.1 -0.65,-45.1 -0.12,-4.9 -4.12,-8.8 -8.99,-8.8 z m -4.08,-89.8 h -0.63 c -4.96,0.3 -8.7,4.6 -8.35,9.6 1.02,14.8 1.86,29.7 2.53,44.7 0.23,4.9 4.61,8.7 9.39,8.6 4.96,-0.3 8.8,-4.5 8.58,-9.4 -0.68,-15.1 -1.53,-30.2 -2.56,-45.2 -0.33,-4.7 -4.28,-8.3 -8.96,-8.3 z m -8.62,-89.6 -1.13,0.1 c -4.93,0.6 -8.42,5.1 -7.8,10 1.82,14.5 3.47,29.4 4.91,44.5 0.47,4.9 4.93,8.6 9.8,8.1 4.95,-0.5 8.57,-4.9 8.1,-9.8 -1.45,-15.3 -3.13,-30.4 -4.97,-45 -0.57,-4.5 -4.44,-7.9 -8.91,-7.9 z m -14.32,-88.8 -1.78,0.2 c -4.87,1 -8.03,5.7 -7.05,10.6 2.85,14.2 5.51,29 7.91,43.9 0.78,4.9 5.41,8.2 10.3,7.5 4.9,-0.8 8.24,-5.4 7.45,-10.3 -2.43,-15.2 -5.13,-30.2 -8.02,-44.6 -0.86,-4.3 -4.62,-7.3 -8.81,-7.3 z m -21.49,-86.5 -2.6,0.4 c -4.76,1.4 -7.45,6.4 -6.01,11.2 4.1,13.6 7.98,27.8 11.56,42.2 1.2,4.8 6.07,7.8 10.89,6.6 4.82,-1.2 7.76,-6.1 6.57,-10.9 -3.65,-14.7 -7.62,-29.2 -11.8,-43.1 -1.18,-3.9 -4.75,-6.4 -8.61,-6.4"
             style="fill:#d40221;fill-opacity:1;fill-rule:nonzero;stroke:none"
             id="path154" />
        </g>
      </g>
      <path
         d="m 8347.22,9425.2 c 0,0 293.54,912.6 240.42,983.2 -53.13,70.6 -347.65,-818.6 -544.76,-822.3 0,0 177.07,-82.2 285.27,-46.1 0,0 30.78,-29.9 19.07,-114.8"
         style="fill:#d40221;fill-opacity:1;fill-rule:nonzero;stroke:none"
         id="path156" />
      <path
         d="m 11874.8,10954.1 c 0,0 -525.9,-435.1 -1238.2,-536.9 -712.36,-101.7 -214.5,-1321.4 -214.3,-1301.3 0.2,20.1 11.1,1101 11.1,1101 0,0 830.7,36.7 1374.7,411.8 0,0 182.4,97.7 66.7,325.4"
         style="fill:#d40221;fill-opacity:1;fill-rule:nonzero;stroke:none"
         id="path158" />
      <path
         d="m 9022.09,11377.1 c 0,0 31.66,126.1 64.85,147.5 33.18,21.3 241.77,82.9 379.26,80.6 137.48,-2.4 350.81,-30.9 367.41,-54.6 16.59,-23.7 35.58,-92.1 35.58,-92.1 0,0 -408.81,22.5 -847.1,-81.4"
         style="fill:#ffe0c1;fill-opacity:1;fill-rule:nonzero;stroke:none"
         id="path160" />
      <path
         d="m 6512.97,5870.9 -1906.94,833.9 c -52.28,22.9 -76.12,83.8 -53.26,136.1 l 538.91,1232.3 c 22.86,52.3 83.77,76.2 136.05,53.3 l 1906.94,-833.9 c 52.28,-22.9 76.12,-83.8 53.26,-136.1 L 6649.02,5924.2 c -22.87,-52.3 -83.78,-76.1 -136.05,-53.3"
         style="fill:#6880e4;fill-opacity:1;fill-rule:nonzero;stroke:none"
         id="path162" />
      <path
         d="m 6372.21,7634.2 c 0,0 -279.93,-257.2 -265.33,-201.3 14.6,55.8 91.85,267.2 91.85,267.2 l -267.25,118.6 263.63,30.2 177.1,-214.7"
         style="fill:#fe8e9c;fill-opacity:1;fill-rule:nonzero;stroke:none"
         id="path164" />
      <path
         d="m 6580.53,6013.8 c 0,-30.2 -24.5,-54.7 -54.74,-54.7 -30.23,0 -54.74,24.5 -54.74,54.7 0,30.2 24.51,54.7 54.74,54.7 30.24,0 54.74,-24.5 54.74,-54.7"
         style="fill:#1b3d9e;fill-opacity:1;fill-rule:nonzero;stroke:none"
         id="path166" />
      <path
         d="m 4743.38,6819.2 c 0,-30.2 -24.5,-54.8 -54.74,-54.8 -30.23,0 -54.73,24.6 -54.73,54.8 0,30.2 24.5,54.7 54.73,54.7 30.24,0 54.74,-24.5 54.74,-54.7"
         style="fill:#1b3d9e;fill-opacity:1;fill-rule:nonzero;stroke:none"
         id="path168" />
      <path
         d="m 5262.86,8015.8 c 0,-30.2 -24.51,-54.7 -54.74,-54.7 -30.23,0 -54.74,24.5 -54.74,54.7 0,30.2 24.51,54.7 54.74,54.7 30.23,0 54.74,-24.5 54.74,-54.7"
         style="fill:#1b3d9e;fill-opacity:1;fill-rule:nonzero;stroke:none"
         id="path170" />
      <path
         d="m 7119.72,7199.9 c 0,-30.2 -24.51,-54.7 -54.74,-54.7 -30.24,0 -54.74,24.5 -54.74,54.7 0,30.2 24.5,54.8 54.74,54.8 30.23,0 54.74,-24.6 54.74,-54.8"
         style="fill:#1b3d9e;fill-opacity:1;fill-rule:nonzero;stroke:none"
         id="path172" />
      <path
         d="m 9789.43,2639.3 c 0,0 -5.5,-156.2 59.57,-161 65.07,-4.8 817.3,36.4 877.9,129.9 60.6,93.5 22.4,209 -34.9,217.1 -57.3,8.1 -926.97,-83.6 -902.57,-186"
         style="fill:#1c056d;fill-opacity:1;fill-rule:nonzero;stroke:none"
         id="path174" />
      <path
         d="m 7444.84,2765.9 c 3.73,13.8 16.58,22.9 30.76,21.8 144.97,-10.6 895.12,-67.4 909.06,-109.7 15.43,-46.7 3.05,-170.5 -104.24,-166.4 -107.28,4.1 -854.17,-28.9 -866.55,41.3 -9.51,53.9 17.8,164.6 30.97,213"
         style="fill:#1c056d;fill-opacity:1;fill-rule:nonzero;stroke:none"
         id="path176" />
      <path
         d="m 16025.3,10417.8 c 0,-101.5 82.2,-183.7 183.6,-183.7 h 8345.6 c 101.4,0 183.6,82.2 183.6,183.7 V 15657 h -8712.8 v -5239.2"
         style="fill:#d4dfff;fill-opacity:1;fill-rule:nonzero;stroke:none"
         id="path178" />
      <g
         id="g180">
        <g
           id="g182"
           clip-path="url(#clipPath186)">
          <path
             d="m 24554.5,10234.1 h -8345.6 c -101.4,0 -183.6,82.2 -183.6,183.7 v 1026.4 c 180.9,145.6 376.6,273.2 581.9,380.8 614.3,321.9 1310.7,470.2 2004,486.7 52.6,1.2 105.4,1.7 158.2,1.7 141.3,0 283.2,-3.7 425,-7.5 141.9,-3.7 283.9,-7.5 425.1,-7.5 360.5,0 716.7,24.5 1058.1,136 780.2,254.9 1348.9,919.4 2056.9,1334.5 539.4,316.2 1164.9,481.8 1789.9,481.8 71.3,0 142.5,-2.1 213.7,-6.5 v -3826.4 c 0,-101.5 -82.2,-183.7 -183.6,-183.7"
             style="fill:#9eaff1;fill-opacity:1;fill-rule:nonzero;stroke:none"
             id="path188" />
        </g>
      </g>
      <path
         d="m 24554.5,16667.6 h -8345.6 c -101.4,0 -183.6,-82.2 -183.6,-183.6 v -827 h 8712.8 v 827 c 0,101.4 -82.2,183.6 -183.6,183.6"
         style="fill:#6880e4;fill-opacity:1;fill-rule:nonzero;stroke:none"
         id="path190" />
      <path
         d="m 13479.1,9666.1 c -57,-15.1 -1745,-1410.4 -1745,-1410.4 l 228.2,-1522.4 3731.1,559.4 -228.3,1522.4 c 0,0 -1929.1,866.1 -1986,851"
         style="fill:#6880e4;fill-opacity:1;fill-rule:nonzero;stroke:none"
         id="path192" />
      <path
         d="m 15130.7,7186 -2723,-408.3 c -57.5,-8.7 -111.2,31 -119.8,88.6 l -334,2227.5 c -8.7,57.6 31,111.3 88.6,119.9 l 2723,408.3 c 57.6,8.6 111.2,-31 119.9,-88.6 l 334,-2227.6 c 8.6,-57.5 -31.1,-111.2 -88.7,-119.8"
         style="fill:#ffffff;fill-opacity:1;fill-rule:nonzero;stroke:none"
         id="path194" />
      <path
         d="m 14639.7,9062.4 -2312.9,-346.8 c -11.8,-1.7 -22.9,6.4 -24.7,18.3 l -13.5,90.4 c -1.8,11.8 6.4,22.9 18.2,24.7 l 2312.9,346.8 c 11.9,1.7 23,-6.4 24.7,-18.3 l 13.6,-90.4 c 1.8,-11.8 -6.4,-22.9 -18.3,-24.7"
         style="fill:#eaf2fc;fill-opacity:1;fill-rule:nonzero;stroke:none"
         id="path196" />
      <path
         d="m 14674.6,8829.6 -2312.9,-346.8 c -11.8,-1.7 -22.9,6.4 -24.7,18.3 l -13.5,90.4 c -1.8,11.8 6.4,22.9 18.2,24.7 l 2312.9,346.8 c 11.9,1.7 23,-6.4 24.8,-18.3 l 13.5,-90.4 c 1.8,-11.8 -6.4,-22.9 -18.3,-24.7"
         style="fill:#eaf2fc;fill-opacity:1;fill-rule:nonzero;stroke:none"
         id="path198" />
      <path
         d="M 14709.5,8596.8 12396.6,8250 c -11.8,-1.7 -22.9,6.4 -24.7,18.3 l -13.5,90.4 c -1.8,11.8 6.4,22.9 18.2,24.7 l 2312.9,346.8 c 11.9,1.7 23,-6.4 24.8,-18.3 l 13.5,-90.4 c 1.8,-11.8 -6.4,-22.9 -18.3,-24.7"
         style="fill:#eaf2fc;fill-opacity:1;fill-rule:nonzero;stroke:none"
         id="path200" />
      <path
         d="m 14744.4,8364 -2312.9,-346.8 c -11.8,-1.7 -22.9,6.4 -24.7,18.3 l -13.5,90.4 c -1.8,11.8 6.4,22.9 18.3,24.7 l 2312.9,346.8 c 11.8,1.7 22.9,-6.4 24.7,-18.3 l 13.5,-90.4 c 1.8,-11.8 -6.4,-22.9 -18.3,-24.7"
         style="fill:#eaf2fc;fill-opacity:1;fill-rule:nonzero;stroke:none"
         id="path202" />
      <path
         d="m 14779.4,8131.2 -2313,-346.8 c -11.8,-1.7 -22.9,6.4 -24.7,18.3 l -13.5,90.4 c -1.8,11.8 6.4,22.9 18.3,24.7 l 2312.9,346.8 c 11.8,1.7 22.9,-6.4 24.7,-18.3 l 13.5,-90.4 c 1.8,-11.8 -6.4,-22.9 -18.2,-24.7"
         style="fill:#eaf2fc;fill-opacity:1;fill-rule:nonzero;stroke:none"
         id="path204" />
      <path
         d="m 14814.3,7898.4 -2312.9,-346.8 c -11.9,-1.7 -23,6.4 -24.8,18.3 l -13.5,90.4 c -1.8,11.8 6.4,22.9 18.3,24.7 l 2312.9,346.8 c 11.8,1.7 22.9,-6.4 24.7,-18.3 l 13.5,-90.4 c 1.8,-11.8 -6.4,-22.9 -18.2,-24.7"
         style="fill:#eaf2fc;fill-opacity:1;fill-rule:nonzero;stroke:none"
         id="path206" />
      <path
         d="m 11766.7,8037.7 c 0,0 1829.9,-826.8 1989.4,-779 159.5,47.7 1741.7,1338.4 1741.7,1338.4 l 361.4,-2410.3 c 7.2,-48.2 -26,-93.1 -74.1,-100.4 l -3556.6,-533.2 c -48.2,-7.3 -93.1,26 -100.4,74.1 l -361.4,2410.4"
         style="fill:#d4dfff;fill-opacity:1;fill-rule:nonzero;stroke:none"
         id="path208" />
      <g
         id="g210">
        <g
           id="g212"
           clip-path="url(#clipPath216)">
          <path
             d="m 12215.3,5552.2 c -43,0 -80.6,31.4 -87.2,75.1 l -124.3,829.6 c 346,-118.2 860.5,-248 1513.2,-248 115.8,0 235.9,4.1 360.2,13 850.1,61.3 1489.4,518.2 1849,851.7 l 133,-886.8 c 0.7,-4.6 1,-9.1 1,-13.5 -0.1,-42.8 -31.5,-80.3 -75.1,-86.9 L 14340,5869.8 12228.5,5553.2 c -4.5,-0.7 -8.9,-1 -13.2,-1"
             style="fill:#c0cdfa;fill-opacity:1;fill-rule:nonzero;stroke:none"
             id="path218" />
        </g>
      </g>
      <path
         d="m 17096.1,13824.2 c 0,0 -1185.4,-1424.1 -1246.6,-1439.4 -61.2,-15.3 -1892.5,237.3 -1892.5,237.3 0,0 -86.7,-306.8 -51.7,-324.3 35.1,-17.5 1885.1,-698.4 2142.2,-686.8 257.1,11.7 974.1,750.6 974.1,750.6 l 74.5,1462.6"
         style="fill:#fe8e9c;fill-opacity:1;fill-rule:nonzero;stroke:none"
         id="path220" />
      <g
         id="g222">
        <g
           id="g224"
           clip-path="url(#clipPath228)">
          <path
             d="m 16738,13503 c 0,0 -366,-983.9 -93.6,-1635 l 677.7,429.8 -418.3,1332.9 -165.8,-127.7"
             style="fill:#e57492;fill-opacity:1;fill-rule:nonzero;stroke:none"
             id="path230" />
        </g>
      </g>
      <path
         d="m 14070.1,12557.2 c 0,0 -261.2,471.4 -283.7,415.3 -22.3,-55.7 58.9,-279.4 58.9,-279.4 0,0 -488.3,384.9 -478.7,327.7 9.5,-57.2 225.5,-298.7 225.5,-298.7 0,0 -349.5,259.9 -378.1,266.6 -28.6,6.7 161.2,-400.5 272.4,-477.1 111.2,-76.5 330.5,-180.5 418.9,-213.8 88.5,-33.2 164.8,259.4 164.8,259.4"
         style="fill:#fe8e9c;fill-opacity:1;fill-rule:nonzero;stroke:none"
         id="path232" />
      <path
         d="m 13252.9,12872.6 c 0,0 309.6,-252.9 315.1,-277.7 5.5,-24.7 -276.4,198.4 -276.4,198.4 l -38.7,79.3"
         style="fill:#e57492;fill-opacity:1;fill-rule:nonzero;stroke:none"
         id="path234" />
      <path
         d="m 13845.3,12693.1 c 0,0 -54.8,-192.8 26.1,-263.4 0,0 -131.5,100.6 -44.2,277.6 l 18.1,-14.2"
         style="fill:#e57492;fill-opacity:1;fill-rule:nonzero;stroke:none"
         id="path236" />
      <path
         d="m 17980,14176.4 c 0,0 1063,-483.2 1118.7,-989.9 55.6,-506.6 416.7,-2960.4 223.8,-2958.6 -894.2,8.5 -1177,0 -1933.5,0 -379.5,0 -790.6,2731.6 -637.2,3140.5 153.3,408.9 602.3,628.5 602.3,628.5 l 625.9,179.5"
         style="fill:#f9c438;fill-opacity:1;fill-rule:nonzero;stroke:none"
         id="path238" />
      <g
         id="g240">
        <g
           id="g242"
           clip-path="url(#clipPath246)">
          <path
             d="m 16729.6,11922.1 c 20.9,65.4 965.8,-1516.7 2924.6,-1364.3 V 10070 H 16918 c 0,0 -292.9,1524.4 -188.4,1852.1"
             style="fill:#f6ab36;fill-opacity:1;fill-rule:nonzero;stroke:none"
             id="path248" />
          <path
             d="m 16883.2,11367.8 c 78.1,52.9 177.6,26.4 255.9,-12.1 85.5,-42.1 159.5,-105.2 250.4,-136.8 43.5,-15.1 89.4,-21.2 135,-14.3 44.1,6.7 85.3,26 123.8,47.7 40.4,22.8 79.1,48.8 120.8,69.4 41.1,20.2 85.8,33.2 131.5,37.5 91.9,8.6 184.8,-14.6 260.7,-67.4 69.9,-48.5 126.7,-116.6 204.9,-152.7 43,-19.9 89.3,-27.2 136.4,-21.9 51.2,5.8 99.8,22.8 148.2,39.8 48.9,17.2 97.9,32.7 149.2,41.1 51.1,8.5 103.3,10.7 155,7.4 102.9,-6.7 197.4,-39.8 290.1,-83.1 84.9,-39.7 170.3,-84.7 263.9,-99.9 23.2,-3.8 46.6,-5.7 70.2,-5.6 17.8,0.1 17.8,27.8 0,27.7 -97.7,-0.7 -187.9,39.3 -274.6,80.2 -89.8,42.3 -179,83.9 -277.9,100.1 -101.5,16.7 -206.5,11.7 -305.7,-15.9 -97.2,-27 -199.4,-86.2 -303.1,-59.4 -84.5,21.8 -145.7,91.2 -211.9,143.3 -72.5,56.9 -156.6,91.3 -249.2,95.4 -45.1,1.9 -90.8,-3.4 -134.1,-16.1 -44.4,-13 -85.1,-34.7 -124.7,-58.2 -39.6,-23.6 -78.8,-49.3 -121.8,-66.4 -44,-17.3 -90.4,-23.1 -136.9,-13.8 -95.4,19.1 -172.6,82.8 -255.4,129.5 -75.3,42.5 -168.8,78.1 -256,55.2 -20.9,-5.5 -40.8,-14.7 -58.7,-26.8 -14.6,-9.9 -0.8,-33.9 14,-23.9"
             style="fill:#ffffff;fill-opacity:1;fill-rule:nonzero;stroke:none"
             id="path250" />
          <path
             d="m 16960.8,11062.9 c 90.1,35.2 170.8,-39.8 239.7,-86.6 71.4,-48.5 158,-88.5 246.4,-78.2 81.9,9.5 148.3,60.6 221,94.7 39.6,18.5 81.5,29.4 125.4,29.8 45.6,0.5 90.7,-8.9 133.9,-22.9 170.4,-55.2 321.8,-192.9 509.9,-182.5 91,5 172.5,49.2 260.2,69 93.3,21 189.7,7.4 280.5,-18.8 180.5,-52 346.4,-155.6 536.5,-172.4 23.2,-2 46.4,-2.5 69.7,-1.6 17.7,0.7 17.8,28.4 0,27.7 -193,-7.6 -365.1,94.2 -542.1,155 -89.3,30.7 -184,53.3 -279,47.2 -45.9,-3 -90.1,-13.4 -133.7,-27.6 -43,-14 -85.2,-30.5 -129.2,-41.1 -189,-45.5 -348.5,85.1 -513.6,152.7 -83.4,34.1 -176.1,56.1 -265.6,34 -79.8,-19.7 -144,-74.5 -220.5,-102.1 -86.7,-31.3 -173.8,-6.5 -250.6,38.7 -75.4,44.3 -141.6,115.8 -233.9,121.3 -21.2,1.2 -42.5,-1.8 -62.3,-9.6 -16.4,-6.4 -9.3,-33.2 7.3,-26.7"
             style="fill:#ffffff;fill-opacity:1;fill-rule:nonzero;stroke:none"
             id="path252" />
          <path
             d="m 17058.1,10683.8 c 142.3,-85.5 296.7,-176 468.9,-167 40.5,2.1 80,10.4 118.4,23.6 37.5,12.8 73.8,29.1 110.9,42.9 37.6,14 76.4,25.6 116.6,27.8 42.7,2.4 85.1,-4.1 126.3,-14.9 83.1,-21.7 161.5,-58.4 242.4,-86.5 80.6,-28 164.2,-50.7 249.7,-54.8 41.4,-2 83.1,0.8 123.8,9.2 40.7,8.4 79.5,23.5 118.4,37.8 39.3,14.4 79.1,27.7 120.9,32.7 41.9,5.1 84.6,3.5 126.3,-2.7 169.2,-25.1 318.9,-117.4 486.6,-148.2 20.8,-3.8 41.8,-6.6 62.9,-8.4 17.8,-1.6 17.7,26.1 0,27.6 -170.3,14.7 -320.7,106.3 -485.3,144.7 -80.5,18.8 -165,25.3 -245.9,4.6 -81.1,-20.7 -155,-61.2 -239.6,-68.5 -173.1,-14.9 -331.3,64.5 -490.1,119.8 -78.4,27.4 -161.4,45.6 -244.3,29.1 -77.9,-15.5 -147.4,-57 -224.1,-76.8 -167.9,-43.4 -333.8,36.8 -475.1,119.9 -18,10.5 -35.8,21.3 -53.7,32 -15.3,9.2 -29.2,-14.7 -14,-23.9"
             style="fill:#ffffff;fill-opacity:1;fill-rule:nonzero;stroke:none"
             id="path254" />
        </g>
      </g>
      <path
         d="m 17259.6,15957.2 c -65.6,10.9 -135,2.5 -194.4,-27.6 -59.4,-30.1 -107.9,-82.5 -129.6,-145.4 -35.1,-102 0.8,-220 -42.7,-318.6 -26.7,-60.6 -79.9,-105.5 -111.9,-163.4 -24,-43.6 -35.2,-94.2 -31.8,-143.9 8.1,-121 97.3,-220 188.8,-299.5 29.7,61.5 79.6,110.5 127.7,159 149.7,150.6 296.5,316 356.5,519.7 20,67.9 29.1,141.1 16,211.2 -6.4,34.1 -18.1,68.6 -37.1,97.8 -7.6,11.6 -10.4,24.6 -17.3,36.7 -7.2,12.7 -17.1,23.7 -28.4,33 -27,22.2 -61.5,35.2 -95.8,41"
         style="fill:#1b3d9e;fill-opacity:1;fill-rule:nonzero;stroke:none"
         id="path256" />
      <g
         id="g258">
        <g
           id="g260"
           clip-path="url(#clipPath264)">
          <path
             d="m 16772.7,14887.7 c 0,0 136.7,495.9 232.7,559.5 96,63.6 -43.2,-628.1 -63.3,-622 -20.2,6 -127.1,10.1 -169.4,62.5"
             style="fill:#1c056d;fill-opacity:1;fill-rule:nonzero;stroke:none"
             id="path266" />
        </g>
      </g>
      <path
         d="m 17837.3,15480 c -76.8,90.5 -357.4,189.6 -583.8,147.3 -127.7,-23.8 -227.4,-124.1 -254.9,-251 -62.5,-287.2 -186.5,-964.9 17.8,-1027 91,-27.6 198,-6 300.8,38.8 20.8,-174.8 103.6,-572.8 118.6,-626 21,-74.8 519.5,178.1 602,270.9 82.4,92.8 -321.6,678.5 -321.6,678.5 48.8,118.3 227.9,642.6 121.1,768.5"
         style="fill:#fe8e9c;fill-opacity:1;fill-rule:nonzero;stroke:none"
         id="path268" />
      <g
         id="g270">
        <g
           id="g272"
           clip-path="url(#clipPath276)">
          <path
             d="m 17317.2,14388.1 c 0,0 134.7,91.9 246,200.7 0,0 -33.2,-381.1 -258.1,-420.7 l 12.1,220"
             style="fill:#e57492;fill-opacity:1;fill-rule:nonzero;stroke:none"
             id="path278" />
          <path
             d="m 17033.8,15233.6 c 40.9,-32.3 96,-49.5 146.3,-36.1 12.7,3.4 24.7,8.6 36.7,13.7 6.5,2.8 13.1,5.7 17.8,10.9 4.7,5.2 6.9,13.4 3.1,19.4 51.7,-43.4 124.2,-60.9 190,-45.9 61.7,-50 127.1,-105.6 145.8,-182.7 19.9,59.1 12.8,125.1 -10.6,183 -23.4,57.8 -62,108.4 -104.9,153.7 -20.3,21.6 -41.9,42.3 -66.8,58.3 -55.7,35.7 -124,45.4 -190.2,47.9 -50,1.9 -101,0 -148.8,-14.8 -37.7,-11.7 -75.6,-32.3 -101.3,-62.8 -5,-5.9 -8.7,-12.7 -7.2,-20.6 1.4,-7.9 6.4,-15.1 10.3,-21.9 10,-18 19.9,-35.7 32.2,-52.2 13.7,-18.6 29.5,-35.6 47.6,-49.9"
             style="fill:#e57492;fill-opacity:1;fill-rule:nonzero;stroke:none"
             id="path280" />
        </g>
      </g>
      <path
         d="m 17122.5,15118.1 c 0,0 -145.3,-235 -114.6,-273 30.7,-38 108.2,53.4 131.9,47.4 23.6,-6 35.4,-43.8 6.2,-48.1 -29.1,-4.4 -142.4,-60.3 -154.1,-6.6 -11.7,53.6 9.5,94.1 130.6,280.3"
         style="fill:#e57492;fill-opacity:1;fill-rule:nonzero;stroke:none"
         id="path282" />
      <path
         d="m 16979.3,14704.4 c 0,0 119.9,-36 233.5,51.1 0,0 -50.4,-114.4 -128.6,-126.3 -103,-15.6 -104.9,75.2 -104.9,75.2"
         style="fill:#ffffff;fill-opacity:1;fill-rule:nonzero;stroke:none"
         id="path284" />
      <path
         d="m 18048.9,15679.2 c -95.1,61.8 -233.5,153.2 -382.8,199.2 4.8,2.1 9.5,4.4 14.2,7 47.8,26.1 83.7,73.4 95.5,126.6 11.7,53.2 -1.3,111.5 -35.1,154.3 -25,31.7 -60.1,54.3 -97,70.6 -35.2,15.5 -73.1,25.9 -111.6,26.9 -79,2 -158.3,-39.1 -200.1,-106.3 -41.7,-67.1 -43,-158 -1.1,-225 9.5,-15.3 21.6,-29.5 36.7,-39.6 1.6,-1.1 3.1,-1.8 4.7,-2.7 -64.3,-18.9 -126.7,-55.1 -184.8,-114.6 -280.3,-287.7 -182.1,-328.4 -182.1,-328.4 0,0 -33,-153.2 154.9,-177.8 117.6,-15.4 83.1,29.2 40.8,64.8 67.6,-48.1 180.9,-123.2 231,-123.2 73.6,0 -48.3,144.8 -48.3,144.8 0,0 231.1,-228.6 205.8,-332.7 0,0 35.5,154.7 93.9,137 58.4,-17.7 78.8,-116.7 50.8,-180.2 -27.9,-63.5 -154.9,-53.4 -154.9,-53.4 l 154.6,-241.2 c 0,0 165.5,-64.1 314.9,172.1 149.3,236.1 197.2,693.5 0,821.8"
         style="fill:#1b3d9e;fill-opacity:1;fill-rule:nonzero;stroke:none"
         id="path286" />
      <path
         d="m 17330.9,15932.5 c 0,0 97.4,-114 335.2,-54.1 l 114.9,-44.4 c 0,0 -298.4,-177.4 -450.1,98.5"
         style="fill:#1c056d;fill-opacity:1;fill-rule:nonzero;stroke:none"
         id="path288" />
      <path
         d="m 17492.3,13751.4 c 0,0 11.2,-376.7 178.1,-311.3 166.9,65.5 629.3,419 378.5,651.3 0,0 -57.7,-81.8 -93.7,-104.7 -36,-22.9 -462.9,-235.3 -462.9,-235.3"
         style="fill:#ffffff;fill-opacity:1;fill-rule:nonzero;stroke:none"
         id="path290" />
      <path
         d="m 17435.8,13762.1 c 0,0 -124.6,-214.1 -188.1,-180.3 -63.5,33.7 -34.9,330.4 -18.4,341.1 16.4,10.8 95.5,81.2 154.2,82.4 l 52.3,-243.2"
         style="fill:#ffffff;fill-opacity:1;fill-rule:nonzero;stroke:none"
         id="path292" />
      <path
         d="m 18548.9,9207.1 c 0,0 926.6,1977.4 926.6,2186.1 0,152 -125.1,1303 -379.5,1891.5 -118.9,275.2 -499.9,294.9 -644.9,32.6 -86.5,-156.5 -140.3,-378.5 -70.9,-679.6 167,-723.5 391.8,-1217.8 391.8,-1217.8 l -626.5,-2157.1 c 0,0 -107.2,-372.6 -107.2,-429.4 0,-56.7 31.5,-615.8 68.8,-615.8 37.3,0 79.9,522.6 79.9,522.6 0,0 16.2,-603.6 79.7,-603.6 35.5,0.1 53.2,568.8 53.2,568.8 0,0 109.5,-375.5 172.1,-434.1 62.6,-58.7 -41.2,463 -41.2,463 0,0 235.7,-210.5 275.9,-181.5 22.4,16.3 -202.7,277.7 -202.7,332.5 0,54.7 117.1,190.1 24.9,321.8"
         style="fill:#fe8e9c;fill-opacity:1;fill-rule:nonzero;stroke:none"
         id="path294" />
      <g
         id="g296">
        <g
           id="g298"
           clip-path="url(#clipPath302)">
          <path
             d="m 18550.6,13432.5 c 0,0 -106.6,-726.4 62.3,-1285.7 169,-559.2 396.2,-751.5 396.2,-751.5 0,0 -169.4,-27 -221.6,-185.4 -52.2,-158.3 -424.7,-1198.8 -424.7,-1198.8 l 285.1,1465.8 c 0,0 -402,891.3 -402,1351.5 0,460.3 304.7,604.1 304.7,604.1"
             style="fill:#e57492;fill-opacity:1;fill-rule:nonzero;stroke:none"
             id="path304" />
        </g>
      </g>
      <path
         d="M 24045.9,10726.3 H 20992 c -69.6,0 -126,56.5 -126,126.1 v 4186.4 c 0,69.6 56.4,126 126,126 h 3053.9 c 69.6,0 126,-56.4 126,-126 v -4186.4 c 0,-69.6 -56.4,-126.1 -126,-126.1"
         style="fill:#ffffff;fill-opacity:1;fill-rule:nonzero;stroke:none"
         id="path306" />
      <path
         d="m 22387.5,13743.5 h -1234.2 c -35.5,0 -64.3,28.7 -64.3,64.2 v 1034.4 c 0,35.5 28.8,64.3 64.3,64.3 h 1234.2 c 35.5,0 64.2,-28.8 64.2,-64.3 v -1034.4 c 0,-35.5 -28.7,-64.2 -64.2,-64.2"
         style="fill:#eaf2fc;fill-opacity:1;fill-rule:nonzero;stroke:none"
         id="path308" />
      <g
         id="g310">
        <g
           id="g312"
           clip-path="url(#clipPath316)">
          <path
             d="m 21770.4,14293.7 c 118.9,0 215.3,96.4 215.3,215.3 0,119 -96.4,215.4 -215.3,215.4 -118.9,0 -215.4,-96.4 -215.4,-215.4 0,-118.9 96.5,-215.3 215.4,-215.3"
             style="fill:#ffffff;fill-opacity:1;fill-rule:nonzero;stroke:none"
             id="path318" />
          <path
             d="m 21770.4,14211.4 c -264.6,0 -479.1,-194.6 -479.1,-434.7 0,-240.1 214.5,-434.8 479.1,-434.8 264.6,0 479.1,194.7 479.1,434.8 0,240.1 -214.5,434.7 -479.1,434.7"
             style="fill:#ffffff;fill-opacity:1;fill-rule:nonzero;stroke:none"
             id="path320" />
        </g>
      </g>
      <path
         d="m 23952.6,14764.2 h -1357.9 c -3.3,0 -6,2.7 -6,6 v 130.2 c 0,3.3 2.7,6 6,6 h 1357.9 c 3.3,0 6,-2.7 6,-6 v -130.2 c 0,-3.3 -2.7,-6 -6,-6"
         style="fill:#eaf2fc;fill-opacity:1;fill-rule:nonzero;stroke:none"
         id="path322" />
      <path
         d="m 23952.6,14509 h -1357.9 c -3.3,0 -6,2.7 -6,6 v 130.2 c 0,3.3 2.7,6 6,6 h 1357.9 c 3.3,0 6,-2.7 6,-6 V 14515 c 0,-3.3 -2.7,-6 -6,-6"
         style="fill:#eaf2fc;fill-opacity:1;fill-rule:nonzero;stroke:none"
         id="path324" />
      <path
         d="m 23952.6,14253.8 h -1357.9 c -3.3,0 -6,2.7 -6,6 v 130.2 c 0,3.3 2.7,6 6,6 h 1357.9 c 3.3,0 6,-2.7 6,-6 v -130.2 c 0,-3.3 -2.7,-6 -6,-6"
         style="fill:#eaf2fc;fill-opacity:1;fill-rule:nonzero;stroke:none"
         id="path326" />
      <path
         d="m 23952.6,13998.7 h -1357.9 c -3.3,0 -6,2.6 -6,5.9 v 130.2 c 0,3.3 2.7,6 6,6 h 1357.9 c 3.3,0 6,-2.7 6,-6 v -130.2 c 0,-3.3 -2.7,-5.9 -6,-5.9"
         style="fill:#eaf2fc;fill-opacity:1;fill-rule:nonzero;stroke:none"
         id="path328" />
      <path
         d="m 23952.6,13743.5 h -1357.9 c -3.3,0 -6,2.6 -6,5.9 v 130.2 c 0,3.3 2.7,6 6,6 h 1357.9 c 3.3,0 6,-2.7 6,-6 v -130.2 c 0,-3.3 -2.7,-5.9 -6,-5.9"
         style="fill:#eaf2fc;fill-opacity:1;fill-rule:nonzero;stroke:none"
         id="path330" />
      <path
         d="m 23949.9,13486.3 h -2852.2 c -4.8,0 -8.7,3.8 -8.7,8.6 v 124.8 c 0,4.8 3.9,8.7 8.7,8.7 h 2852.2 c 4.8,0 8.7,-3.9 8.7,-8.7 v -124.8 c 0,-4.8 -3.9,-8.6 -8.7,-8.6"
         style="fill:#eaf2fc;fill-opacity:1;fill-rule:nonzero;stroke:none"
         id="path332" />
      <path
         d="m 23949.9,13229.1 h -2852.2 c -4.8,0 -8.7,3.8 -8.7,8.6 v 124.8 c 0,4.8 3.9,8.7 8.7,8.7 h 2852.2 c 4.8,0 8.7,-3.9 8.7,-8.7 v -124.8 c 0,-4.8 -3.9,-8.6 -8.7,-8.6"
         style="fill:#eaf2fc;fill-opacity:1;fill-rule:nonzero;stroke:none"
         id="path334" />
      <path
         d="m 23949.9,12971.9 h -2852.2 c -4.8,0 -8.7,3.8 -8.7,8.6 v 124.8 c 0,4.8 3.9,8.7 8.7,8.7 h 2852.2 c 4.8,0 8.7,-3.9 8.7,-8.7 v -124.8 c 0,-4.8 -3.9,-8.6 -8.7,-8.6"
         style="fill:#eaf2fc;fill-opacity:1;fill-rule:nonzero;stroke:none"
         id="path336" />
      <path
         d="m 23949.9,12714.7 h -2852.2 c -4.8,0 -8.7,3.8 -8.7,8.6 v 124.8 c 0,4.8 3.9,8.7 8.7,8.7 h 2852.2 c 4.8,0 8.7,-3.9 8.7,-8.7 v -124.8 c 0,-4.8 -3.9,-8.6 -8.7,-8.6"
         style="fill:#eaf2fc;fill-opacity:1;fill-rule:nonzero;stroke:none"
         id="path338" />
      <path
         d="m 23949.9,12457.5 h -2852.2 c -4.8,0 -8.7,3.8 -8.7,8.6 v 124.8 c 0,4.8 3.9,8.7 8.7,8.7 h 2852.2 c 4.8,0 8.7,-3.9 8.7,-8.7 v -124.8 c 0,-4.8 -3.9,-8.6 -8.7,-8.6"
         style="fill:#eaf2fc;fill-opacity:1;fill-rule:nonzero;stroke:none"
         id="path340" />
      <path
         d="m 23949.9,12200.3 h -2852.2 c -4.8,0 -8.7,3.8 -8.7,8.6 v 124.8 c 0,4.8 3.9,8.7 8.7,8.7 h 2852.2 c 4.8,0 8.7,-3.9 8.7,-8.7 v -124.8 c 0,-4.8 -3.9,-8.6 -8.7,-8.6"
         style="fill:#eaf2fc;fill-opacity:1;fill-rule:nonzero;stroke:none"
         id="path342" />
      <path
         d="m 23949.9,11943.1 h -2852.2 c -4.8,0 -8.7,3.8 -8.7,8.6 v 124.8 c 0,4.8 3.9,8.7 8.7,8.7 h 2852.2 c 4.8,0 8.7,-3.9 8.7,-8.7 v -124.8 c 0,-4.8 -3.9,-8.6 -8.7,-8.6"
         style="fill:#eaf2fc;fill-opacity:1;fill-rule:nonzero;stroke:none"
         id="path344" />
      <path
         d="m 23949.9,11685.9 h -2852.2 c -4.8,0 -8.7,3.8 -8.7,8.6 v 124.8 c 0,4.8 3.9,8.7 8.7,8.7 h 2852.2 c 4.8,0 8.7,-3.9 8.7,-8.7 v -124.8 c 0,-4.8 -3.9,-8.6 -8.7,-8.6"
         style="fill:#eaf2fc;fill-opacity:1;fill-rule:nonzero;stroke:none"
         id="path346" />
      <path
         d="m 23949.9,11428.7 h -2852.2 c -4.8,0 -8.7,3.8 -8.7,8.6 v 124.8 c 0,4.8 3.9,8.7 8.7,8.7 h 2852.2 c 4.8,0 8.7,-3.9 8.7,-8.7 v -124.8 c 0,-4.8 -3.9,-8.6 -8.7,-8.6"
         style="fill:#eaf2fc;fill-opacity:1;fill-rule:nonzero;stroke:none"
         id="path348" />
      <path
         d="m 23949.9,11171.5 h -2852.2 c -4.8,0 -8.7,3.8 -8.7,8.6 v 124.8 c 0,4.8 3.9,8.7 8.7,8.7 h 2852.2 c 4.8,0 8.7,-3.9 8.7,-8.7 v -124.8 c 0,-4.8 -3.9,-8.6 -8.7,-8.6"
         style="fill:#eaf2fc;fill-opacity:1;fill-rule:nonzero;stroke:none"
         id="path350" />
      <path
         d="m 23949.9,10914.3 h -2852.2 c -4.8,0 -8.7,3.8 -8.7,8.6 v 124.8 c 0,4.8 3.9,8.7 8.7,8.7 h 2852.2 c 4.8,0 8.7,-3.9 8.7,-8.7 v -124.8 c 0,-4.8 -3.9,-8.6 -8.7,-8.6"
         style="fill:#eaf2fc;fill-opacity:1;fill-rule:nonzero;stroke:none"
         id="path352" />
      <path
         d="m 23987.2,13743.5 h -1357.9 c -3.3,0 -6,2.6 -6,5.9 v 130.2 c 0,3.3 2.7,6 6,6 h 1357.9 c 3.3,0 6,-2.7 6,-6 v -130.2 c 0,-3.3 -2.7,-5.9 -6,-5.9"
         style="fill:#eaf2fc;fill-opacity:1;fill-rule:nonzero;stroke:none"
         id="path354" />
      <path
         d="m 23987.2,13743.5 h -1357.9 c -3.3,0 -6,2.6 -6,5.9 v 130.2 c 0,3.3 2.7,6 6,6 h 1357.9 c 3.3,0 6,-2.7 6,-6 v -130.2 c 0,-3.3 -2.7,-5.9 -6,-5.9"
         style="fill:#eaf2fc;fill-opacity:1;fill-rule:nonzero;stroke:none"
         id="path356" />
      <path
         d="m 23138.3,16162.3 c 0,-82 -66.4,-148.5 -148.5,-148.5 -82,0 -148.5,66.5 -148.5,148.5 0,82 66.5,148.5 148.5,148.5 82.1,0 148.5,-66.5 148.5,-148.5"
         style="fill:#ffffff;fill-opacity:1;fill-rule:nonzero;stroke:none"
         id="path358" />
      <path
         d="m 23753.8,16162.3 c 0,-82 -66.5,-148.5 -148.5,-148.5 -82.1,0 -148.5,66.5 -148.5,148.5 0,82 66.4,148.5 148.5,148.5 82,0 148.5,-66.5 148.5,-148.5"
         style="fill:#ffffff;fill-opacity:1;fill-rule:nonzero;stroke:none"
         id="path360" />
      <path
         d="m 24369.2,16162.3 c 0,-82 -66.5,-148.5 -148.5,-148.5 -82,0 -148.5,66.5 -148.5,148.5 0,82 66.5,148.5 148.5,148.5 82,0 148.5,-66.5 148.5,-148.5"
         style="fill:#1b3d9e;fill-opacity:1;fill-rule:nonzero;stroke:none"
         id="path362" />
      <path
         d="m 8754.6,15020.7 c -137.71,34.2 -2188.25,-150.5 -2169.69,-383.8 0,0 90.3,-1312.4 220.4,-1324.6 81.81,-7.6 921.67,94.8 1547.6,206.8 179.78,-166 391.7,-329.2 446.26,-343.2 59.31,-15.3 -28.43,200.4 -123.98,406.4 206.5,45.1 348.65,88.8 362.57,124.4 54.89,140.1 -145.44,1279.7 -283.16,1314"
         style="fill:#d4dfff;fill-opacity:1;fill-rule:nonzero;stroke:none"
         id="path364" />
      <path
         d="m 7264.29,14092.1 c -1.98,-63.6 -55.12,-113.5 -118.68,-111.5 -63.57,2 -113.49,55.1 -111.5,118.7 1.98,63.5 55.12,113.5 118.68,111.5 63.57,-2 113.49,-55.2 111.5,-118.7"
         style="fill:#ffffff;fill-opacity:1;fill-rule:nonzero;stroke:none"
         id="path366" />
      <path
         d="m 7867.99,14188.4 c -1.98,-63.5 -55.12,-113.5 -118.68,-111.5 -63.57,2 -113.49,55.2 -111.5,118.7 1.98,63.6 55.12,113.5 118.68,111.5 63.57,-2 113.49,-55.1 111.5,-118.7"
         style="fill:#ffffff;fill-opacity:1;fill-rule:nonzero;stroke:none"
         id="path368" />
      <path
         d="m 8494.62,14284.1 c -1.99,-63.6 -55.13,-113.5 -118.69,-111.5 -63.57,2 -113.48,55.1 -111.5,118.7 1.98,63.5 55.12,113.4 118.69,111.5 63.56,-2 113.48,-55.2 111.5,-118.7"
         style="fill:#ffffff;fill-opacity:1;fill-rule:nonzero;stroke:none"
         id="path370" />
      <path
         d="m 4802.8,10718.1 c 241.22,55 482.88,110.9 717.43,190.4 230.43,78.2 454.85,180 652.24,323.7 85.38,62.1 201.84,153.7 172.62,274.7 -10.52,43.5 -39.67,86.5 -89.83,78 -36.6,-6.2 -66.88,-39.6 -62.36,-77.7 2.87,-24.2 18.36,-46 33.56,-64.2 17.41,-20.9 39.35,-38.7 63.26,-51.7 53.79,-29.1 116.68,-30.2 175.48,-18 65.68,13.5 126.93,43.5 186.42,73.5 61.65,31 123.03,62.7 184.14,94.8 245.23,129 485.99,266.5 721.7,412.2 29.36,18.1 58.65,36.4 87.86,54.8 16.3,10.3 1.26,36.3 -15.14,25.9 -219.87,-138.4 -444.17,-269.8 -672.54,-393.8 -113.86,-61.8 -228.49,-122.5 -344.69,-179.8 -100.79,-49.7 -237.55,-105.3 -337.6,-24.1 -25.32,20.5 -72.47,67.6 -44.01,102 9.49,11.4 25.1,18.5 40.02,17.1 19.34,-1.7 29.76,-17.1 37.02,-33.6 49.92,-113.4 -73.71,-208.1 -152.99,-265.7 -185.04,-134.3 -393.71,-231.9 -608.88,-307.4 -218.49,-76.5 -443.8,-131.4 -669.2,-183.3 -27.49,-6.3 -54.99,-12.6 -82.49,-18.9 -18.81,-4.2 -10.85,-33.2 7.98,-28.9"
         style="fill:#6880e4;fill-opacity:1;fill-rule:nonzero;stroke:none"
         id="path372" />
      <path
         d="m 8960.5,16457.7 c 328.09,86.4 661.83,151.2 998.47,193.6 335.03,42.2 672.73,62.6 1010.33,61.4 339.2,-1.1 678.4,-23.9 1014.6,-68.3 336.4,-44.5 669.9,-110.6 997.8,-198 326.2,-87 646.8,-195.1 958.8,-324 40.8,-16.9 81.3,-34.1 121.8,-51.7 18,-7.8 33.8,18.8 15.6,26.7 -312.4,135.5 -633.5,250.5 -961.1,343.7 -327.6,93.3 -661.3,165.2 -998.3,215.3 -336.9,50.1 -676.9,78.9 -1017.5,85.7 -340.6,6.8 -681.6,-8.3 -1020.3,-45.5 -338.41,-37.2 -674.51,-96.3 -1005.15,-177.7 -41.17,-10.1 -82.26,-20.6 -123.26,-31.4 -19.2,-5.1 -11.06,-34.9 8.21,-29.8"
         style="fill:#6880e4;fill-opacity:1;fill-rule:nonzero;stroke:none"
         id="path374" />
      <path
         d="m 14197.8,5366.1 c 176.4,-349.4 410.8,-667.6 685.7,-945.8 276.4,-279.7 592.7,-519.3 932.6,-716.5 354.6,-205.8 735,-364.5 1128.7,-478.1 452.9,-130.7 921.5,-203.1 1391.8,-230 474.9,-27.1 951.9,-8 1424.4,44.6 57.9,6.4 115.7,13.4 173.5,20.8 18.9,2.4 19.1,32.5 0,30 -466.4,-59.8 -937.3,-88.6 -1407.5,-73.8 -470.2,14.8 -939.6,73.5 -1395.9,189 -406,102.9 -799.8,251.2 -1168.7,450 -345.4,186.2 -668.6,414.7 -954.2,684.1 -282.5,266.5 -527.6,573.1 -716.6,912.7 -23.5,42.2 -46.1,85 -67.9,128.1 -8.7,17.2 -34.6,2.1 -25.9,-15.1"
         style="fill:#6880e4;fill-opacity:1;fill-rule:nonzero;stroke:none"
         id="path376" />
      <path
         d="m 25030.8,11925.1 c 242.1,-255.3 446.9,-543.9 613.6,-853.5 167.4,-310.7 296.5,-641.5 390.1,-981.7 97.7,-354.5 156.1,-718.8 180.4,-1085.6 26.8,-405.3 12.9,-812.8 -31.2,-1216.5 -44.6,-407.3 -120.2,-810.9 -216.7,-1209 -12,-49.6 -24.4,-99.2 -37,-148.7 -4.8,-18.7 24.1,-26.7 28.9,-8 101.6,397.8 183.5,800.9 236,1208.2 52.6,408.1 75.4,820.6 57.7,1231.9 -16.2,376.1 -66.6,750.9 -157.8,1116.2 -85.7,343.6 -206.9,678.8 -365.7,995.5 -158,314.9 -354.1,611.1 -587.8,875.1 -29.2,32.9 -59,65.4 -89.3,97.3 -13.3,14 -34.5,-7.2 -21.2,-21.2"
         style="fill:#6880e4;fill-opacity:1;fill-rule:nonzero;stroke:none"
         id="path378" />
    </g>
  </g>
</svg>
